<svg width="39" height="39" viewBox="0 0 39 39" fill="none" xmlns="http://www.w3.org/2000/svg">
<path d="M9.67025 5.45062C9.77925 5.56322 9.92851 5.62791 10.0852 5.63046C10.2419 5.633 10.3932 5.5732 10.5058 5.46421C12.6915 3.34617 15.555 2.06812 18.5912 1.85553C18.7474 1.84462 18.8929 1.77215 18.9957 1.65404C19.0985 1.53593 19.1503 1.38184 19.1396 1.22562C19.1273 1.06972 19.0544 0.924852 18.9365 0.822105C18.8186 0.719358 18.6652 0.666929 18.5091 0.676072C15.1948 0.908334 12.0689 2.30332 9.68266 4.61507C9.57022 4.72423 9.50574 4.87358 9.50341 5.03027C9.50109 5.18697 9.5611 5.33817 9.67025 5.45062ZM20.322 1.24512C20.314 1.32233 20.3212 1.40037 20.3434 1.47477C20.3655 1.54918 20.4021 1.61849 20.4511 1.67874C20.5 1.73899 20.5604 1.78901 20.6287 1.82594C20.6969 1.86286 20.7718 1.88597 20.8491 1.89394C23.876 2.2113 26.6936 3.58726 28.8051 5.77916C28.8588 5.83524 28.9231 5.88015 28.9942 5.91129C29.0654 5.94244 29.142 5.95921 29.2196 5.96063C29.2973 5.96206 29.3745 5.94812 29.4467 5.91961C29.519 5.89111 29.5849 5.8486 29.6406 5.79453C29.6964 5.74063 29.7411 5.67627 29.7721 5.60511C29.803 5.53396 29.8197 5.4574 29.821 5.37981C29.8224 5.30223 29.8085 5.22513 29.7801 5.15292C29.7516 5.08071 29.7093 5.01481 29.6554 4.95898C27.3506 2.56676 24.2752 1.06506 20.9714 0.718617C20.8941 0.709868 20.8158 0.716603 20.7411 0.73843C20.6664 0.760256 20.5968 0.796738 20.5363 0.845746C20.4759 0.894754 20.4258 0.955308 20.389 1.02388C20.3522 1.09244 20.3294 1.16765 20.322 1.24512ZM5.3897 15.7301C5.3897 15.8868 5.45196 16.0371 5.56277 16.1479C5.67359 16.2587 5.82389 16.321 5.98061 16.321C6.13733 16.321 6.28763 16.2587 6.39845 16.1479C6.50926 16.0371 6.57152 15.8868 6.57152 15.7301V14.7533C6.56389 12.0287 7.42359 9.37242 9.02616 7.16898C9.0728 7.10623 9.10653 7.03485 9.12539 6.95897C9.14425 6.88309 9.14787 6.80422 9.13602 6.72693C9.12418 6.64964 9.09711 6.57548 9.05639 6.50872C9.01568 6.44197 8.96212 6.38397 8.89882 6.33807C8.83552 6.29217 8.76374 6.25928 8.68764 6.24133C8.61154 6.22337 8.53264 6.22069 8.4555 6.23345C8.37835 6.24621 8.30451 6.27416 8.23825 6.31566C8.17199 6.35717 8.11462 6.41141 8.06947 6.47525C6.32005 8.88036 5.38149 11.7798 5.3897 14.7539V15.7301ZM31.2042 6.87471C31.1166 6.74479 30.9811 6.65496 30.8273 6.62498C30.6736 6.59501 30.5142 6.62734 30.3843 6.71487C30.2543 6.80239 30.1645 6.93795 30.1345 7.09171C30.1046 7.24546 30.1369 7.40483 30.2244 7.53475C32.9385 11.5636 32.3369 15.4547 32.4238 16.1969C32.4238 16.3536 32.486 16.5039 32.5969 16.6147C32.7077 16.7255 32.858 16.7878 33.0147 16.7878C33.1714 16.7878 33.3217 16.7255 33.4325 16.6147C33.5434 16.5039 33.6056 16.3536 33.6056 16.1969C33.5182 15.4612 34.1687 11.274 31.2042 6.87471Z" fill="#F6762D"/>
<path d="M33.5341 19.2825C33.5709 19.2142 33.594 19.1393 33.6019 19.0621C33.6098 18.9849 33.6025 18.9069 33.5802 18.8325C33.558 18.7582 33.5214 18.6889 33.4724 18.6288C33.4234 18.5686 33.363 18.5186 33.2948 18.4818C32.6735 18.1447 32.1549 17.6462 31.7935 17.0388C31.4322 16.4313 31.2416 15.7376 31.2419 15.0309C31.2419 8.60413 26.1323 3.00586 19.4947 3.00586C13.0207 3.00586 7.7533 8.27559 7.7533 14.7531C7.75108 15.4846 7.55887 16.203 7.19548 16.8379C6.8321 17.4728 6.31002 18.0024 5.68039 18.3748C5.54958 18.4564 5.45586 18.5859 5.41921 18.7357C5.38257 18.8855 5.40592 19.0436 5.48426 19.1764C5.56261 19.3092 5.68976 19.4061 5.83857 19.4465C5.98738 19.4868 6.14606 19.4674 6.28075 19.3924C7.08697 18.9152 7.75545 18.2368 8.22075 17.4237C8.68604 16.6106 8.9322 15.6906 8.93512 14.7537C8.93512 8.92736 13.6718 4.18827 19.4947 4.18827C25.4664 4.18827 30.0601 9.23168 30.0601 15.0309C30.0599 15.9509 30.3083 16.8538 30.779 17.6443C31.2496 18.4348 31.9251 19.0835 32.734 19.5218C32.8023 19.5586 32.8771 19.5817 32.9543 19.5896C33.0315 19.5975 33.1095 19.5902 33.1839 19.5679C33.2582 19.5457 33.3275 19.5091 33.3877 19.4601C33.4479 19.4111 33.4972 19.3507 33.5341 19.2825Z" fill="#F6762D"/>
<path d="M27.8483 12.155C27.9204 12.1261 27.9861 12.0834 28.0416 12.0292C28.0971 11.975 28.1415 11.9104 28.172 11.8391C28.2026 11.7677 28.2188 11.6911 28.2197 11.6135C28.2207 11.5359 28.2063 11.4588 28.1775 11.3868C26.8733 8.12083 23.9814 5.84052 20.6298 5.43515C20.4762 5.42021 20.3228 5.46595 20.2025 5.5626C20.0822 5.65925 20.0045 5.79914 19.9859 5.95236C19.9674 6.10557 20.0096 6.25996 20.1034 6.3825C20.1972 6.50504 20.3352 6.58601 20.488 6.60811C23.41 6.96147 25.9362 8.96052 27.0802 11.8252C27.1089 11.8973 27.1516 11.9631 27.2058 12.0187C27.26 12.0743 27.3246 12.1187 27.3959 12.1493C27.4673 12.1799 27.5439 12.1962 27.6216 12.1971C27.6992 12.1981 27.7763 12.1838 27.8483 12.155ZM32.5112 22.0149C32.6577 22.0707 32.8205 22.0661 32.9636 22.002C33.1067 21.9379 33.2185 21.8196 33.2744 21.673C33.3302 21.5265 33.3256 21.3638 33.2615 21.2207C33.1974 21.0775 33.0791 20.9657 32.9325 20.9099C30.5074 19.9863 28.8783 17.6238 28.8783 15.0303C28.8783 14.6262 28.8529 14.2167 28.8027 13.8148C28.7932 13.7378 28.7686 13.6634 28.7303 13.5959C28.6919 13.5284 28.6407 13.4691 28.5794 13.4215C28.5182 13.3738 28.4481 13.3387 28.3732 13.3182C28.2984 13.2977 28.2202 13.2922 28.1432 13.3019C27.4016 13.3941 27.6965 14.1664 27.6965 15.0309C27.6965 18.1107 29.6311 20.9176 32.5112 22.0149ZM10.6777 11.5564C10.6512 11.6293 10.6393 11.7068 10.6428 11.7843C10.6462 11.8618 10.6649 11.9379 10.6977 12.0082C10.7305 12.0786 10.7769 12.1417 10.8342 12.1941C10.8914 12.2465 10.9584 12.2871 11.0314 12.3136C11.1043 12.3401 11.1818 12.352 11.2593 12.3486C11.3368 12.3451 11.4129 12.3265 11.4832 12.2936C11.5536 12.2608 11.6167 12.2144 11.6691 12.1572C11.7215 12.0999 11.7621 12.0329 11.7886 11.96C12.2913 10.5691 13.1611 9.3402 14.3057 8.4036C15.4502 7.46699 16.8269 6.85759 18.2898 6.64002C18.4449 6.61706 18.5845 6.53344 18.6779 6.40755C18.7713 6.28166 18.8109 6.12382 18.7879 5.96874C18.765 5.81367 18.6814 5.67407 18.5555 5.58065C18.4296 5.48723 18.2717 5.44765 18.1167 5.47061C16.4428 5.71909 14.8674 6.4161 13.5577 7.48768C12.2479 8.55926 11.2527 9.96543 10.6777 11.557V11.5564ZM6.18089 22.0397C7.67808 21.4966 8.97208 20.5063 9.88746 19.203C10.8028 17.8997 11.2953 16.3464 11.2982 14.7538C11.2982 14.5352 11.307 14.3201 11.3236 14.1067C11.3307 14.0287 11.3222 13.9501 11.2986 13.8754C11.2751 13.8007 11.2369 13.7314 11.1863 13.6716C11.1357 13.6118 11.0737 13.5627 11.004 13.527C10.9342 13.4914 10.8581 13.4699 10.78 13.464C10.7019 13.458 10.6234 13.4677 10.5491 13.4923C10.4747 13.517 10.406 13.5562 10.3469 13.6076C10.2879 13.6591 10.2396 13.7218 10.205 13.792C10.1704 13.8623 10.1501 13.9387 10.1453 14.0169C10.1264 14.2604 10.1169 14.5056 10.1169 14.7532C10.1169 17.5116 8.37375 19.9928 5.77966 20.9282C5.63437 20.983 5.51648 21.0927 5.45148 21.2338C5.38648 21.3748 5.3796 21.5357 5.43232 21.6817C5.48504 21.8278 5.59313 21.9472 5.73321 22.0142C5.87329 22.0812 6.03411 22.0903 6.18089 22.0397ZM32.9118 26.7882C32.7671 26.728 32.6044 26.7277 32.4594 26.7873C32.3144 26.8469 32.1989 26.9616 32.1383 27.1062C31.0907 29.614 29.7363 31.9339 28.1125 34.0003C28.063 34.0611 28.0261 34.1312 28.0039 34.2064C27.9818 34.2817 27.9749 34.3606 27.9835 34.4385C27.9922 34.5165 28.0163 34.5919 28.0544 34.6605C28.0925 34.729 28.1439 34.7893 28.2056 34.8378C28.2672 34.8862 28.3379 34.922 28.4135 34.9428C28.4891 34.9637 28.5681 34.9693 28.6459 34.9594C28.7237 34.9494 28.7988 34.924 28.8667 34.8848C28.9345 34.8455 28.9939 34.7931 29.0414 34.7307C30.7314 32.5797 32.1401 30.1677 33.2292 27.5612C33.2895 27.4166 33.29 27.2539 33.2305 27.109C33.171 26.9641 33.0564 26.8487 32.9118 26.7882ZM26.2009 32.5555C24.843 34.2782 23.2844 35.8326 21.5581 37.1859C21.4348 37.2827 21.355 37.4246 21.3362 37.5803C21.3175 37.736 21.3614 37.8928 21.4583 38.0161C21.5551 38.1394 21.697 38.2193 21.8527 38.238C22.0084 38.2567 22.1651 38.2128 22.2885 38.116C24.0884 36.704 25.7136 35.0825 27.1298 33.2859C27.1793 33.225 27.2162 33.155 27.2383 33.0797C27.2605 33.0045 27.2674 32.9256 27.2587 32.8476C27.2501 32.7697 27.226 32.6942 27.1879 32.6257C27.1497 32.5571 27.0983 32.4969 27.0367 32.4484C26.975 32.3999 26.9043 32.3642 26.8287 32.3433C26.7531 32.3225 26.6741 32.3168 26.5963 32.3268C26.5185 32.3368 26.4435 32.3621 26.3756 32.4014C26.3077 32.4407 26.2483 32.4931 26.2009 32.5555ZM27.7213 31.4966C27.7862 31.5392 27.8588 31.5686 27.935 31.5832C28.0113 31.5977 28.0896 31.5971 28.1656 31.5813C28.2416 31.5656 28.3138 31.535 28.378 31.4914C28.4422 31.4478 28.4971 31.3919 28.5397 31.327C30.0595 29.013 31.2537 26.4473 32.0911 23.7007C32.1307 23.5526 32.1112 23.3948 32.0368 23.2608C31.9623 23.1267 31.8387 23.0268 31.692 22.9821C31.5453 22.9374 31.387 22.9514 31.2504 23.0212C31.1139 23.091 31.0098 23.2112 30.9601 23.3562C30.1564 25.9947 29.0101 28.4587 27.5517 30.6782C27.5091 30.7431 27.4797 30.8157 27.4651 30.8919C27.4506 30.9682 27.4512 31.0465 27.467 31.1225C27.4827 31.1985 27.5133 31.2707 27.5569 31.3349C27.6006 31.3991 27.6564 31.454 27.7213 31.4966ZM17.9081 38.2401C23.8893 34.6385 28.067 29.1672 29.9904 22.4191C30.0117 22.3444 30.018 22.2663 30.0091 22.1892C30.0002 22.1121 29.9761 22.0375 29.9384 21.9697C29.9006 21.9019 29.8499 21.8421 29.7891 21.7939C29.7282 21.7457 29.6585 21.71 29.5838 21.6887C29.5092 21.6674 29.4311 21.6611 29.354 21.67C29.2769 21.6789 29.2023 21.703 29.1345 21.7407C29.0666 21.7785 29.0069 21.8292 28.9587 21.89C28.9105 21.9509 28.8747 22.0206 28.8535 22.0952C27.0146 28.5503 23.0188 33.7828 17.2988 37.2272C17.2324 37.2672 17.1744 37.3199 17.1283 37.3823C17.0823 37.4447 17.0489 37.5156 17.0302 37.5909C17.0115 37.6662 17.0078 37.7444 17.0193 37.8211C17.0308 37.8978 17.0573 37.9715 17.0973 38.038C17.1373 38.1044 17.19 38.1624 17.2524 38.2085C17.3148 38.2546 17.3857 38.2879 17.461 38.3066C17.5363 38.3253 17.6145 38.329 17.6912 38.3175C17.7679 38.306 17.8416 38.2801 17.9081 38.2401Z" fill="#F6762D"/>
<path d="M23.5862 27.9919C22.4233 29.7596 21.0229 31.359 19.4244 32.7452C19.363 32.7952 19.3124 32.857 19.2754 32.9269C19.2383 32.9969 19.2158 33.0736 19.209 33.1524C19.2021 33.2312 19.2112 33.3106 19.2357 33.3859C19.2601 33.4612 19.2995 33.5307 19.3513 33.5905C19.4032 33.6503 19.4665 33.699 19.5376 33.7339C19.6086 33.7687 19.6859 33.7889 19.765 33.7933C19.844 33.7977 19.9231 33.7861 19.9975 33.7594C20.072 33.7326 20.1403 33.6912 20.1985 33.6375C21.8791 32.1804 23.3514 30.4993 24.5742 28.6413C24.6168 28.5765 24.6462 28.5038 24.6608 28.4276C24.6754 28.3513 24.6748 28.273 24.6591 28.1969C24.6433 28.1209 24.6128 28.0487 24.5692 27.9845C24.5256 27.9203 24.4697 27.8653 24.4049 27.8226C24.34 27.78 24.2673 27.7506 24.1911 27.736C24.1148 27.7214 24.0365 27.722 23.9604 27.7377C23.8844 27.7535 23.8122 27.784 23.748 27.8276C23.6838 27.8712 23.6288 27.9271 23.5862 27.9919ZM14.5482 37.3602C15.8566 36.7216 17.1106 35.9769 18.2975 35.1337C18.3619 35.0891 18.4168 35.0323 18.459 34.9663C18.5012 34.9004 18.5299 34.8268 18.5435 34.7497C18.557 34.6725 18.555 34.5935 18.5377 34.5172C18.5205 34.4408 18.4882 34.3687 18.4428 34.3049C18.3974 34.2411 18.3397 34.187 18.2732 34.1457C18.2067 34.1044 18.1327 34.0767 18.0554 34.0643C17.9781 34.0518 17.8991 34.0548 17.823 34.0732C17.7469 34.0915 17.6752 34.1248 17.6121 34.1711C16.4777 34.9768 15.2793 35.6883 14.0288 36.2983C13.888 36.3672 13.7803 36.4892 13.7294 36.6375C13.6786 36.7858 13.6887 36.9482 13.7576 37.089C13.8264 37.2298 13.9484 37.3375 14.0967 37.3883C14.245 37.4392 14.4074 37.4291 14.5482 37.3602ZM25.002 26.8042C25.0708 26.8402 25.146 26.8623 25.2233 26.8692C25.3006 26.8761 25.3785 26.8677 25.4526 26.8445C25.5267 26.8213 25.5955 26.7837 25.655 26.7339C25.7146 26.6841 25.7638 26.6231 25.7997 26.5543C26.8042 24.635 27.5718 22.5402 28.083 20.3284C28.1004 20.2528 28.1028 20.1745 28.09 20.098C28.0772 20.0214 28.0495 19.9481 28.0083 19.8823C27.9672 19.8165 27.9135 19.7594 27.8503 19.7144C27.7871 19.6693 27.7157 19.6371 27.6401 19.6196C27.5645 19.6022 27.4861 19.5998 27.4096 19.6126C27.3331 19.6254 27.2598 19.6532 27.194 19.6943C27.1281 19.7354 27.0711 19.7891 27.026 19.8523C26.9809 19.9155 26.9488 19.9869 26.9313 20.0625C26.4432 22.1762 25.7105 24.1758 24.7526 26.0071C24.6801 26.1459 24.6656 26.3078 24.7123 26.4572C24.7591 26.6067 24.8633 26.7315 25.002 26.8042Z" fill="#F6762D"/>
<path d="M11.9121 35.929C20.5926 32.3859 25.8913 24.7702 26.4485 15.0368C26.4733 14.6279 26.458 14.1947 26.4042 13.7486C26.4013 13.7247 26.397 13.701 26.3912 13.6777C26.3887 13.6669 26.3863 13.656 26.3841 13.6452C25.7235 10.1328 22.6496 7.52278 19.1709 7.73964C15.6526 7.94468 12.8913 10.813 12.6886 14.226C12.3896 19.0656 9.78723 22.1921 5.79505 23.5104C5.64617 23.5595 5.5229 23.6658 5.45237 23.8058C5.38183 23.9458 5.36981 24.1081 5.41894 24.257C5.46807 24.4059 5.57433 24.5292 5.71435 24.5997C5.85437 24.6702 6.01667 24.6823 6.16555 24.6331C10.6724 23.144 13.5436 19.5631 13.8686 14.2981C14.0264 11.6379 16.0491 9.40009 18.668 8.97996C22.0102 8.50368 24.6699 10.8939 25.2241 13.8745L25.2336 13.9158L25.2342 13.9182C25.2773 14.2845 25.2891 14.6367 25.2696 14.9676C24.7384 24.2295 19.7074 31.4711 11.466 34.8346C11.3938 34.8637 11.3281 34.9067 11.2726 34.9612C11.2171 35.0158 11.1729 35.0807 11.1426 35.1524C11.1123 35.224 11.0964 35.301 11.0959 35.3788C11.0954 35.4566 11.1102 35.5337 11.1396 35.6058C11.169 35.6778 11.2123 35.7434 11.267 35.7986C11.3218 35.8539 11.3869 35.8978 11.4587 35.9278C11.5305 35.9579 11.6075 35.9734 11.6853 35.9736C11.7631 35.9738 11.8402 35.9586 11.9121 35.929Z" fill="#F6762D"/>
<path d="M14.4643 19.4847C14.5365 19.513 14.6137 19.5268 14.6913 19.5253C14.7689 19.5238 14.8455 19.507 14.9166 19.4759C14.9877 19.4447 15.052 19.3999 15.1058 19.344C15.1596 19.288 15.2018 19.222 15.2301 19.1497C15.7926 17.712 16.1277 16.1272 16.2258 14.4407C16.3114 13.0414 17.2658 11.8271 18.6012 11.4194C18.7509 11.3735 18.8762 11.27 18.9497 11.1317C19.0231 10.9935 19.0387 10.8317 18.993 10.6819C18.6225 9.45817 15.236 11.2788 15.0457 14.3704C14.9547 15.9345 14.6468 17.3976 14.1292 18.7189C14.1009 18.7912 14.0871 18.8683 14.0886 18.9459C14.0902 19.0236 14.107 19.1001 14.1381 19.1712C14.1692 19.2423 14.214 19.3066 14.27 19.3604C14.3259 19.4142 14.392 19.4564 14.4643 19.4847ZM15.7406 30.3504C15.695 30.2875 15.6375 30.2343 15.5714 30.1937C15.5052 30.1531 15.4317 30.1259 15.355 30.1137C15.2784 30.1016 15.2001 30.1046 15.1246 30.1227C15.0491 30.1408 14.9779 30.1736 14.9151 30.2192C13.2801 31.4081 11.4429 32.3624 9.45512 33.0573C9.30718 33.109 9.18584 33.2174 9.1178 33.3586C9.04976 33.4998 9.04059 33.6622 9.0923 33.8101C9.14402 33.9581 9.25239 34.0794 9.39357 34.1474C9.53475 34.2155 9.69718 34.2247 9.84512 34.1729C11.9423 33.4402 13.8816 32.4315 15.61 31.1753C15.7366 31.083 15.8213 30.9444 15.8457 30.7897C15.8701 30.635 15.8321 30.477 15.74 30.3504H15.7406ZM23.465 19.243C23.7563 18.0104 24.2538 15.187 24.0323 13.939C23.6718 12.249 22.4894 10.8663 20.9448 10.3286C20.7967 10.2772 20.6342 10.2867 20.4931 10.3551C20.3521 10.4235 20.2439 10.5451 20.1925 10.6932C20.1411 10.8413 20.1507 11.0037 20.219 11.1448C20.2874 11.2859 20.409 11.394 20.5571 11.4454C21.7129 11.8472 22.6017 12.8967 22.8723 14.1654C23.0466 15.1622 22.5491 17.9791 22.3145 18.9712C22.2966 19.0468 22.2938 19.1251 22.3063 19.2017C22.3187 19.2783 22.3461 19.3517 22.3869 19.4178C22.4277 19.4838 22.4811 19.5412 22.544 19.5866C22.607 19.632 22.6783 19.6645 22.7538 19.6824C22.8294 19.7002 22.9077 19.703 22.9843 19.6906C23.0609 19.6782 23.1344 19.6508 23.2004 19.61C23.2664 19.5692 23.3238 19.5158 23.3692 19.4528C23.4146 19.3899 23.4471 19.3186 23.465 19.243ZM13.1211 20.7333C11.6675 23.081 9.17858 25.0121 5.99121 25.9144C5.84037 25.957 5.71264 26.0578 5.63612 26.1946C5.5596 26.3314 5.54056 26.493 5.58319 26.6439C5.62582 26.7947 5.72662 26.9224 5.86342 26.999C6.00023 27.0755 6.16182 27.0945 6.31267 27.0519C9.80789 26.0621 12.5213 23.9402 14.1251 21.3555C14.2044 21.2224 14.2282 21.0635 14.1915 20.9129C14.1547 20.7624 14.0603 20.6323 13.9286 20.5507C13.7969 20.4691 13.6384 20.4426 13.4872 20.4767C13.3361 20.5109 13.205 20.603 13.1211 20.7333ZM22.4208 20.816C22.2732 20.7636 22.1108 20.7719 21.9693 20.8391C21.8278 20.9064 21.7188 21.0271 21.6663 21.1747C20.618 24.1239 18.9433 26.6773 16.6878 28.7649C16.6309 28.8177 16.5849 28.8812 16.5525 28.9517C16.52 29.0223 16.5018 29.0985 16.4988 29.1761C16.4959 29.2537 16.5082 29.3311 16.5352 29.4039C16.5621 29.4767 16.6032 29.5435 16.6559 29.6005C16.7087 29.6574 16.7722 29.7035 16.8427 29.7359C16.9133 29.7683 16.9895 29.7865 17.0671 29.7895C17.1447 29.7925 17.2221 29.7801 17.2949 29.7532C17.3677 29.7262 17.4345 29.6852 17.4915 29.6324C19.8876 27.4135 21.6674 24.7019 22.7801 21.5706C22.8061 21.4975 22.8174 21.42 22.8134 21.3424C22.8094 21.2649 22.7901 21.189 22.7568 21.1189C22.7234 21.0488 22.6766 20.986 22.6189 20.9341C22.5613 20.8821 22.494 20.842 22.4208 20.816Z" fill="#F6762D"/>
<path d="M6.87996 29.3381C13.767 27.3846 18.1421 21.8696 18.5841 14.5896C18.6184 14.0531 19.0367 13.643 19.5662 13.6359C19.8368 13.6359 20.0891 13.7446 20.2759 13.9432C20.4685 14.1465 20.5648 14.4136 20.5483 14.6948C20.0903 22.6603 15.379 28.7868 7.94596 31.0819C7.79621 31.1281 7.67097 31.232 7.59777 31.3706C7.52458 31.5091 7.50943 31.6711 7.55566 31.8209C7.6019 31.9706 7.70572 32.0958 7.8443 32.169C7.98287 32.2422 8.14485 32.2574 8.29459 32.2111C16.2187 29.7648 21.2414 23.2411 21.7277 14.7634C21.7448 14.4656 21.7011 14.1674 21.5994 13.887C21.4976 13.6067 21.3398 13.3499 21.1356 13.1325C20.7232 12.6952 20.166 12.4541 19.5402 12.4541C18.3962 12.4701 17.4779 13.3558 17.4046 14.5164C16.9945 21.2746 12.9397 26.3901 6.5585 28.2006C6.48266 28.2207 6.41156 28.2557 6.34938 28.3035C6.28719 28.3514 6.23515 28.4111 6.1963 28.4793C6.15745 28.5475 6.13256 28.6227 6.12309 28.7006C6.11362 28.7785 6.11976 28.8574 6.14114 28.9329C6.16253 29.0084 6.19873 29.0789 6.24764 29.1403C6.29655 29.2016 6.35719 29.2526 6.42602 29.2903C6.49485 29.3279 6.57049 29.3515 6.64853 29.3596C6.72657 29.3677 6.80544 29.3602 6.88055 29.3376L6.87996 29.3381Z" fill="#F6762D"/>
</svg>
