<svg width="32" height="32" viewBox="0 0 32 32" fill="none" xmlns="http://www.w3.org/2000/svg">
<g clip-path="url(#clip0_61_111)">
<path fill-rule="evenodd" clip-rule="evenodd" d="M15.9993 0C24.8337 0 31.9985 7.16511 31.9985 16C31.9985 24.8349 24.8337 32 15.9993 32C7.16478 32 0 24.8349 0 16C0 7.16511 7.16478 0 15.9993 0ZM7.64184 12.1671C7.34553 5.81535 4.22242 14.3613 1.70823 15.3673C1.35266 23.4555 7.88481 30.3065 15.9993 30.3065C23.9004 30.3065 30.3051 23.9 30.3051 16C30.3051 12.6382 27.6517 8.98454 24.0293 12.4323C22.6351 13.7583 20.6647 14.8266 20.3639 12.6752C20.0231 10.2276 19.6424 9.64237 17.629 12.4293C12.3221 19.7737 15.9756 6.25539 11.8228 11.7566C10.0716 13.9509 7.81221 15.8296 7.64184 12.1671Z" fill="#F6762D"/>
<path fill-rule="evenodd" clip-rule="evenodd" d="M24.2841 22.371C23.6875 24.0933 22.569 25.5869 21.0841 26.644C19.5993 27.7011 17.8219 28.2692 15.9992 28.2692C14.1766 28.2692 12.3992 27.7011 10.9144 26.644C9.42952 25.5869 8.31101 24.0933 7.71442 22.371H8.2374C9.79007 24.4912 12.8821 25.8987 15.9992 25.8987C19.1164 25.8987 22.3492 24.4912 23.9033 22.371H24.2841Z" fill="#F6762D"/>
<path d="M10.8049 19.5456C11.4276 19.5456 11.9324 19.0407 11.9324 18.418C11.9324 17.7953 11.4276 17.2905 10.8049 17.2905C10.1823 17.2905 9.67749 17.7953 9.67749 18.418C9.67749 19.0407 10.1823 19.5456 10.8049 19.5456Z" fill="#F6762D"/>
<path d="M21.4662 19.5456C22.0889 19.5456 22.5937 19.0407 22.5937 18.418C22.5937 17.7953 22.0889 17.2905 21.4662 17.2905C20.8435 17.2905 20.3387 17.7953 20.3387 18.418C20.3387 19.0407 20.8435 19.5456 21.4662 19.5456Z" fill="#F6762D"/>
</g>
<defs>
<clipPath id="clip0_61_111">
<rect width="32" height="32" fill="white"/>
</clipPath>
</defs>
</svg>
