<svg width="56" height="56" viewBox="0 0 56 56" fill="none" xmlns="http://www.w3.org/2000/svg">
<path d="M28 23.809C22.1894 23.809 16.2691 30.579 16.2691 37.2236C16.2691 37.2848 16.2691 37.346 16.2751 37.4073C16.2786 37.9714 16.3285 38.5343 16.4244 39.0902L16.4416 39.1746C16.4416 39.1828 16.4617 39.2724 16.464 39.2814C16.5655 39.7165 16.7127 40.1397 16.903 40.544C16.9474 40.6513 16.9972 40.7562 17.0524 40.8583C17.1308 41.0077 17.2099 41.157 17.304 41.3063C17.3981 41.4557 17.4929 41.5998 17.5705 41.7028C17.6451 41.8123 17.7266 41.9168 17.8147 42.0157C18.8399 43.2268 20.3071 43.9212 21.84 43.9212C23.0383 43.9209 24.1994 43.505 25.1253 42.7444C25.7686 42.1917 26.5554 41.8326 27.3944 41.7088C27.7936 41.6584 28.1974 41.6584 28.5966 41.7088C29.4492 41.8326 30.2485 42.198 30.9 42.7616C31.8225 43.5132 32.9761 43.9233 34.166 43.9227C35.8034 43.9227 37.3311 43.1499 38.3473 41.8171C38.3966 41.7551 38.4458 41.6849 38.4675 41.6513C38.5295 41.5639 38.5914 41.4781 38.6766 41.3482C38.7617 41.2041 38.8476 41.0532 38.9334 40.8897C38.9715 40.815 39.0081 40.7337 39.035 40.6769C39.2577 40.2314 39.4274 39.7613 39.5405 39.2762L39.5621 39.1724L39.5853 39.0596C39.6794 38.513 39.7294 37.9597 39.7346 37.405C39.7391 37.3438 39.7406 37.2826 39.7406 37.2213C39.7338 30.579 33.8105 23.809 28 23.809ZM37.909 38.8916C37.8228 39.2574 37.6933 39.6116 37.523 39.9467L37.4423 40.1184C37.3751 40.2453 37.3034 40.3715 37.2549 40.4559C37.2064 40.5403 37.1541 40.6015 37.0847 40.6993L37.022 40.7859C36.3149 41.7133 35.2725 42.2457 34.1622 42.2457C33.363 42.2461 32.5878 41.9723 31.9663 41.4699C31.0741 40.7074 29.9832 40.2148 28.8213 40.0497C28.2731 39.975 27.7172 39.975 27.1689 40.0497C26.0195 40.2153 24.9403 40.7028 24.0561 41.4557C23.4311 41.9667 22.6488 42.2463 21.8415 42.2471C20.8021 42.2471 19.8008 41.7685 19.0908 40.93C19.0369 40.8701 18.9871 40.8067 18.9414 40.7404C18.8668 40.6388 18.7958 40.5328 18.7324 40.4313C18.6577 40.3125 18.598 40.1931 18.5166 40.0385C18.5004 40.0103 18.4864 39.9808 18.4748 39.9504C18.4627 39.9156 18.4487 39.8814 18.4329 39.8481C18.2894 39.5503 18.1785 39.2379 18.1022 38.9163L18.0745 38.7819C17.9933 38.3146 17.9521 37.8412 17.9513 37.3669C17.9513 37.3333 17.9513 37.2542 17.9454 37.2221C17.9454 31.5175 23.1138 25.4837 28 25.4837C32.8862 25.4837 38.0576 31.519 38.0576 37.2236V37.2691C38.0537 37.3021 38.0517 37.3352 38.0516 37.3684C38.0516 37.8427 38.0111 38.316 37.9306 38.7834L37.909 38.8916Z" fill="#F6762D"/>
<path d="M14.5898 18.7802C12.2752 18.7802 10.3988 21.0366 10.3988 23.809C10.3988 26.5813 12.2789 28.8385 14.5898 28.8385C16.9008 28.8385 18.7801 26.5821 18.7801 23.809C18.7801 21.0358 16.9 18.7802 14.5898 18.7802ZM14.5898 27.1615C13.2033 27.1615 12.0751 25.6577 12.0751 23.809C12.0751 21.9602 13.2033 20.4587 14.5898 20.4587C15.9764 20.4587 17.1039 21.9632 17.1039 23.8112C17.1039 25.6592 15.9786 27.1615 14.5898 27.1615Z" fill="#F6762D"/>
<path d="M22.9712 12.0751C20.6603 12.0751 18.7802 14.3308 18.7802 17.1039C18.7802 19.877 20.6603 22.1327 22.9712 22.1327C25.2821 22.1327 27.1615 19.877 27.1615 17.1039C27.1615 14.3308 25.2821 12.0751 22.9712 12.0751ZM22.9712 20.4564C21.5846 20.4564 20.4564 18.9526 20.4564 17.1039C20.4564 15.2551 21.5846 13.7513 22.9712 13.7513C24.3578 13.7513 25.4852 15.2559 25.4852 17.1039C25.4852 18.9519 24.3578 20.4586 22.9712 20.4586V20.4564Z" fill="#F6762D"/>
<path d="M33.0288 12.0751C30.7141 12.0751 28.8385 14.3308 28.8385 17.1039C28.8385 19.877 30.7179 22.1327 33.0288 22.1327C35.3397 22.1327 37.2198 19.877 37.2198 17.1039C37.2198 14.3308 35.3397 12.0751 33.0288 12.0751ZM33.0288 20.4564C31.6422 20.4564 30.5148 18.9526 30.5148 17.1039C30.5148 15.2551 31.6422 13.7513 33.0288 13.7513C34.4154 13.7513 35.5413 15.2559 35.5413 17.1039C35.5413 18.9519 34.4154 20.4586 33.0288 20.4586V20.4564Z" fill="#F6762D"/>
<path d="M41.4101 18.7802C39.1 18.7802 37.2198 21.0366 37.2198 23.809C37.2198 26.5813 39.1 28.8385 41.4101 28.8385C43.7203 28.8385 45.6012 26.5821 45.6012 23.809C45.6012 21.0358 43.7211 18.7802 41.4101 18.7802ZM41.4101 27.1615C40.0236 27.1615 38.8961 25.6577 38.8961 23.809C38.8961 21.9602 40.0213 20.4587 41.4101 20.4587C42.7989 20.4587 43.9249 21.9632 43.9249 23.8112C43.9249 25.6592 42.7967 27.1615 41.4101 27.1615Z" fill="#F6762D"/>
</svg>
