<svg width="40" height="38" viewBox="0 0 40 38" fill="none" xmlns="http://www.w3.org/2000/svg">
<path d="M20 16.6675H36.1831C36.3616 17.6147 36.4509 18.5194 36.4509 19.3818C36.4509 22.4495 35.7738 25.1885 34.4197 27.5988C33.0655 30.0092 31.1347 31.8929 28.6273 33.2501C26.1198 34.6072 23.2441 35.2858 20 35.2858C17.6637 35.2858 15.439 34.8581 13.3259 34.0029C11.2128 33.1476 9.38992 31.9919 7.85718 30.5358C6.32444 29.0797 5.10792 27.3479 4.20762 25.3405C3.30733 23.333 2.85718 21.2196 2.85718 19.0001C2.85718 16.7806 3.30733 14.6671 4.20762 12.6597C5.10792 10.6522 6.32444 8.92046 7.85718 7.46436C9.38992 6.00825 11.2128 4.85256 13.3259 3.99728C15.439 3.142 17.6637 2.71436 20 2.71436C24.4643 2.71436 28.2962 4.13511 31.4956 6.97663L26.8304 11.2389C25 9.55662 22.7232 8.71547 20 8.71547C18.0804 8.71547 16.3058 9.17492 14.6764 10.0938C13.0469 11.0127 11.756 12.2603 10.8036 13.8366C9.85123 15.4128 9.37503 17.134 9.37503 19.0001C9.37503 20.8661 9.85123 22.5873 10.8036 24.1636C11.756 25.7398 13.0469 26.9874 14.6764 27.9063C16.3058 28.8252 18.0804 29.2847 20 29.2847C21.2947 29.2847 22.4852 29.115 23.5715 28.7757C24.6578 28.4365 25.5506 28.0123 26.25 27.5034C26.9494 26.9945 27.5596 26.4149 28.0804 25.7646C28.6012 25.1143 28.9844 24.4993 29.2299 23.9197C29.4755 23.3401 29.6429 22.7888 29.7322 22.2657H20V16.6675Z" fill="#F6762D"/>
</svg>
