<svg width="35" height="35" viewBox="0 0 35 35" fill="none" xmlns="http://www.w3.org/2000/svg">
<path d="M17.5 2.41382C9.16761 2.41382 2.41382 9.16761 2.41382 17.5C2.41382 25.8324 9.16761 32.5862 17.5 32.5862C25.8324 32.5862 32.5862 25.8324 32.5862 17.5C32.5862 9.16761 25.8324 2.41382 17.5 2.41382ZM25.3449 18.7069H9.6552C9.33511 18.7069 9.02813 18.5798 8.80179 18.3534C8.57546 18.1271 8.4483 17.8201 8.4483 17.5C8.4483 17.1799 8.57546 16.873 8.80179 16.6466C9.02813 16.4203 9.33511 16.2931 9.6552 16.2931H25.3449C25.6649 16.2931 25.9719 16.4203 26.1983 16.6466C26.4246 16.873 26.5518 17.1799 26.5518 17.5C26.5518 17.8201 26.4246 18.1271 26.1983 18.3534C25.9719 18.5798 25.6649 18.7069 25.3449 18.7069Z" fill="#F6762D"/>
</svg>
