<svg width="35" height="35" viewBox="0 0 35 35" fill="none" xmlns="http://www.w3.org/2000/svg">
<g clip-path="url(#clip0_61_156)">
<path d="M17.5 2.91663C14.6157 2.91663 11.7961 3.77192 9.3979 5.37436C6.99968 6.9768 5.1305 9.2544 4.02672 11.9192C2.92294 14.5839 2.63415 17.5161 3.19685 20.345C3.75955 23.1739 5.14848 25.7724 7.18799 27.8119C9.22751 29.8514 11.826 31.2404 14.6549 31.8031C17.4838 32.3658 20.416 32.077 23.0808 30.9732C25.7455 29.8694 28.0231 28.0002 29.6256 25.602C31.228 23.2038 32.0833 20.3843 32.0833 17.5C32.0833 15.5848 31.7061 13.6885 30.9732 11.9192C30.2403 10.1498 29.1661 8.54217 27.8119 7.18799C26.4578 5.8338 24.8501 4.7596 23.0808 4.02672C21.3114 3.29384 19.4151 2.91663 17.5 2.91663ZM21.875 18.9583H18.9583V21.875C18.9583 22.2617 18.8047 22.6327 18.5312 22.9062C18.2577 23.1796 17.8867 23.3333 17.5 23.3333C17.1132 23.3333 16.7423 23.1796 16.4688 22.9062C16.1953 22.6327 16.0416 22.2617 16.0416 21.875V18.9583H13.125C12.7382 18.9583 12.3673 18.8046 12.0938 18.5312C11.8203 18.2577 11.6666 17.8867 11.6666 17.5C11.6666 17.1132 11.8203 16.7423 12.0938 16.4688C12.3673 16.1953 12.7382 16.0416 13.125 16.0416H16.0416V13.125C16.0416 12.7382 16.1953 12.3673 16.4688 12.0938C16.7423 11.8203 17.1132 11.6666 17.5 11.6666C17.8867 11.6666 18.2577 11.8203 18.5312 12.0938C18.8047 12.3673 18.9583 12.7382 18.9583 13.125V16.0416H21.875C22.2617 16.0416 22.6327 16.1953 22.9062 16.4688C23.1797 16.7423 23.3333 17.1132 23.3333 17.5C23.3333 17.8867 23.1797 18.2577 22.9062 18.5312C22.6327 18.8046 22.2617 18.9583 21.875 18.9583Z" fill="#F6762D"/>
</g>
<defs>
<clipPath id="clip0_61_156">
<rect width="35" height="35" fill="white"/>
</clipPath>
</defs>
</svg>
