<svg width="46" height="46" viewBox="0 0 46 46" fill="none" xmlns="http://www.w3.org/2000/svg">
<path d="M23 0C16.9021 0.00681818 11.0559 2.43222 6.74407 6.74407C2.43222 11.0559 0.00681818 16.9021 0 23C0.010217 29.0968 2.43671 34.941 6.74783 39.2522C11.059 43.5633 16.9032 45.9898 23 46C29.1 46 34.9501 43.5768 39.2635 39.2635C43.5768 34.9501 46 29.1 46 23C46 16.9 43.5768 11.0499 39.2635 6.73654C34.9501 2.42321 29.1 0 23 0ZM36.9895 36.2719C35.6978 33.6665 33.7037 31.4739 31.2321 29.9415C28.7605 28.4091 25.9099 27.5979 23.0019 27.5995C20.0938 27.601 17.2441 28.4152 14.7741 29.9502C12.3042 31.4852 10.3123 33.6799 9.02336 36.2866C5.58424 32.7198 3.66793 27.9548 3.68 23C3.68 17.876 5.71549 12.9619 9.3387 9.3387C12.9619 5.71549 17.876 3.68 23 3.68C28.124 3.68 33.0381 5.71549 36.6613 9.3387C40.2845 12.9619 42.32 17.876 42.32 23C42.3315 27.9478 40.4202 32.7066 36.9895 36.2719ZM23 9.2C21.3624 9.2 19.7615 9.68561 18.3999 10.5954C17.0382 11.5052 15.977 12.7984 15.3503 14.3114C14.7236 15.8244 14.5596 17.4892 14.8791 19.0953C15.1986 20.7015 15.9872 22.1769 17.1452 23.3348C18.3031 24.4928 19.7785 25.2814 21.3847 25.6009C22.9908 25.9204 24.6556 25.7564 26.1686 25.1297C27.6816 24.503 28.9748 23.4418 29.8846 22.0801C30.7944 20.7185 31.28 19.1176 31.28 17.48C31.28 16.3927 31.0658 15.316 30.6497 14.3114C30.2336 13.3068 29.6237 12.394 28.8548 11.6252C28.086 10.8563 27.1732 10.2464 26.1686 9.83028C25.164 9.41417 24.0873 9.2 23 9.2Z" fill="#F6762D"/>
</svg>
