<svg width="33" height="32" viewBox="0 0 33 32" fill="none" xmlns="http://www.w3.org/2000/svg">
<path d="M20.685 16.88C23.61 15.28 25.5 12.12 25.5 9.20002C25.5 5.04002 21.675 0.400024 16.5 0.400024C11.325 0.400024 7.49999 5.04002 7.49999 9.20002C7.49999 12.12 9.38999 15.28 12.315 16.88C5.38499 18.52 0.299988 24.16 0.299988 30.8C0.299988 31.24 0.704988 31.6 1.19999 31.6H31.8C32.295 31.6 32.7 31.24 32.7 30.8C32.7 24.16 27.615 18.52 20.685 16.88ZM9.29999 9.20002C9.29999 5.08002 13.125 2.00002 16.5 2.00002C19.875 2.00002 23.7 5.08002 23.7 9.20002C23.7 13.32 19.875 16.4 16.5 16.4C13.125 16.4 9.29999 13.32 9.29999 9.20002ZM2.14499 30C2.59499 23.32 8.89499 18 16.5 18C24.105 18 30.405 23.32 30.855 30H2.14499Z" fill="#F6762D"/>
</svg>
